<svg width="365" height="65" viewBox="0 0 365 65" fill="none" xmlns="http://www.w3.org/2000/svg">
<path d="M0 5C0 2.23858 2.23858 0 5 0H360C362.761 0 365 2.23858 365 5V65H0V5Z" fill="#27AE60"/>
<path d="M32.6882 32.4922H29.8885C29.8374 32.13 29.733 31.8082 29.5753 31.527C29.4176 31.2415 29.2152 30.9986 28.968 30.7983C28.7209 30.598 28.4354 30.4446 28.1115 30.3381C27.7919 30.2315 27.4446 30.1783 27.0696 30.1783C26.392 30.1783 25.8018 30.3466 25.299 30.6832C24.7962 31.0156 24.4063 31.5014 24.1293 32.1406C23.8523 32.7756 23.7138 33.5469 23.7138 34.4545C23.7138 35.3878 23.8523 36.1719 24.1293 36.8068C24.4105 37.4418 24.8026 37.9212 25.3054 38.245C25.8082 38.5689 26.3899 38.7308 27.0504 38.7308C27.4212 38.7308 27.7642 38.6818 28.0795 38.5838C28.3991 38.4858 28.6825 38.343 28.9297 38.1555C29.1768 37.9638 29.3814 37.7315 29.5433 37.4588C29.7095 37.1861 29.8246 36.875 29.8885 36.5256L32.6882 36.5384C32.6158 37.1392 32.4347 37.7188 32.1449 38.277C31.8594 38.831 31.4737 39.3274 30.9879 39.7663C30.5064 40.201 29.9311 40.5462 29.2621 40.8018C28.5973 41.0533 27.8452 41.179 27.0057 41.179C25.8381 41.179 24.794 40.9148 23.8736 40.3864C22.9574 39.858 22.233 39.093 21.7003 38.0916C21.1719 37.0902 20.9077 35.8778 20.9077 34.4545C20.9077 33.027 21.1761 31.8125 21.7131 30.8111C22.25 29.8097 22.9787 29.0469 23.8991 28.5227C24.8196 27.9943 25.8551 27.7301 27.0057 27.7301C27.7642 27.7301 28.4673 27.8366 29.1151 28.0497C29.767 28.2628 30.3445 28.5739 30.8473 28.983C31.3501 29.3878 31.7592 29.8842 32.0746 30.4723C32.3942 31.0604 32.5987 31.7337 32.6882 32.4922ZM37.4215 41.1854C36.7951 41.1854 36.2369 41.0767 35.7468 40.8594C35.2567 40.6378 34.869 40.3118 34.5835 39.8814C34.3022 39.4467 34.1616 38.9055 34.1616 38.2578C34.1616 37.7124 34.2617 37.2543 34.462 36.8835C34.6623 36.5128 34.935 36.2145 35.2802 35.9886C35.6254 35.7628 36.0174 35.5923 36.4563 35.4773C36.8995 35.3622 37.364 35.2812 37.8498 35.2344C38.4208 35.1747 38.881 35.1193 39.2305 35.0682C39.5799 35.0128 39.8335 34.9318 39.9911 34.8253C40.1488 34.7187 40.2276 34.5611 40.2276 34.3523V34.3139C40.2276 33.9091 40.0998 33.5959 39.8441 33.3743C39.5927 33.1527 39.2347 33.0419 38.7702 33.0419C38.2802 33.0419 37.8903 33.1506 37.6005 33.3679C37.3107 33.581 37.119 33.8494 37.0252 34.1733L34.5067 33.9688C34.6346 33.3722 34.886 32.8565 35.261 32.4219C35.636 31.983 36.1197 31.6463 36.712 31.4119C37.3086 31.1733 37.9989 31.054 38.783 31.054C39.3285 31.054 39.8505 31.1179 40.3491 31.2457C40.8519 31.3736 41.2972 31.5717 41.685 31.8402C42.0771 32.1087 42.386 32.4538 42.6119 32.8757C42.8377 33.2933 42.9506 33.794 42.9506 34.3778V41H40.3683V39.6385H40.2915C40.1339 39.9453 39.9229 40.2159 39.6587 40.4503C39.3945 40.6804 39.0771 40.8615 38.7063 40.9936C38.3356 41.1214 37.9073 41.1854 37.4215 41.1854ZM38.2013 39.3061C38.6019 39.3061 38.9556 39.2273 39.2624 39.0696C39.5692 38.9077 39.81 38.6903 39.9847 38.4176C40.1594 38.1449 40.2468 37.8359 40.2468 37.4908V36.4489C40.1616 36.5043 40.0444 36.5554 39.8952 36.6023C39.7504 36.6449 39.5863 36.6854 39.4031 36.7237C39.2198 36.7578 39.0366 36.7898 38.8533 36.8196C38.6701 36.8452 38.5039 36.8686 38.3548 36.8899C38.0352 36.9368 37.756 37.0114 37.5174 37.1136C37.2788 37.2159 37.0934 37.3544 36.9613 37.5291C36.8292 37.6996 36.7631 37.9126 36.7631 38.1683C36.7631 38.5391 36.8974 38.8224 37.1658 39.0185C37.4386 39.2102 37.7837 39.3061 38.2013 39.3061ZM45.0632 41V31.1818H47.7031V32.8949H47.8054C47.9844 32.2855 48.2848 31.8253 48.7067 31.5142C49.1286 31.1989 49.6143 31.0412 50.1641 31.0412C50.3004 31.0412 50.4474 31.0497 50.6051 31.0668C50.7628 31.0838 50.9013 31.1072 51.0206 31.1371V33.5533C50.8928 33.5149 50.7159 33.4808 50.4901 33.451C50.2642 33.4212 50.0575 33.4062 49.87 33.4062C49.4695 33.4062 49.1115 33.4936 48.7962 33.6683C48.4851 33.8388 48.2379 34.0774 48.0547 34.3842C47.8757 34.6911 47.7862 35.0447 47.7862 35.4453V41H45.0632ZM52.4284 41V31.1818H55.0684V32.8949H55.1706C55.3496 32.2855 55.65 31.8253 56.0719 31.5142C56.4938 31.1989 56.9796 31.0412 57.5293 31.0412C57.6657 31.0412 57.8127 31.0497 57.9703 31.0668C58.128 31.0838 58.2665 31.1072 58.3858 31.1371V33.5533C58.258 33.5149 58.0811 33.4808 57.8553 33.451C57.6294 33.4212 57.4228 33.4062 57.2353 33.4062C56.8347 33.4062 56.4767 33.4936 56.1614 33.6683C55.8503 33.8388 55.6032 34.0774 55.4199 34.3842C55.2409 34.6911 55.1515 35.0447 55.1515 35.4453V41H52.4284ZM59.7937 41V31.1818H62.5167V41H59.7937ZM61.1616 29.9162C60.7567 29.9162 60.4094 29.782 60.1197 29.5135C59.8342 29.2408 59.6914 28.9148 59.6914 28.5355C59.6914 28.1605 59.8342 27.8388 60.1197 27.5703C60.4094 27.2976 60.7567 27.1612 61.1616 27.1612C61.5664 27.1612 61.9116 27.2976 62.1971 27.5703C62.4869 27.8388 62.6317 28.1605 62.6317 28.5355C62.6317 28.9148 62.4869 29.2408 62.1971 29.5135C61.9116 29.782 61.5664 29.9162 61.1616 29.9162ZM67.421 35.3239V41H64.698V31.1818H67.2931V32.9141H67.4082C67.6255 32.343 67.9899 31.8913 68.5012 31.5589C69.0126 31.2223 69.6326 31.054 70.3613 31.054C71.0431 31.054 71.6376 31.2031 72.1447 31.5014C72.6518 31.7997 73.046 32.2259 73.3272 32.7798C73.6085 33.3295 73.7491 33.9858 73.7491 34.7486V41H71.0261V35.2344C71.0304 34.6335 70.877 34.1648 70.5659 33.8281C70.2548 33.4872 69.8265 33.3168 69.2811 33.3168C68.9146 33.3168 68.5907 33.3956 68.3095 33.5533C68.0325 33.7109 67.8152 33.9411 67.6575 34.2436C67.5041 34.5419 67.4252 34.902 67.421 35.3239ZM78.6183 35.3239V41H75.8952V27.9091H78.5415V32.9141H78.6566C78.8782 32.3345 79.2362 31.8807 79.7305 31.5526C80.2248 31.2202 80.8448 31.054 81.5906 31.054C82.2724 31.054 82.8668 31.2031 83.3739 31.5014C83.8853 31.7955 84.2816 32.2195 84.5629 32.7734C84.8484 33.3232 84.989 33.9815 84.9847 34.7486V41H82.2617V35.2344C82.266 34.6293 82.1126 34.1584 81.8015 33.8217C81.4947 33.4851 81.0643 33.3168 80.5103 33.3168C80.1396 33.3168 79.8114 33.3956 79.5259 33.5533C79.2447 33.7109 79.0231 33.9411 78.8612 34.2436C78.7035 34.5419 78.6225 34.902 78.6183 35.3239ZM91.5637 41.1918C90.5708 41.1918 89.7122 40.9808 88.9877 40.5589C88.2676 40.1328 87.7115 39.5405 87.3194 38.782C86.9274 38.0192 86.7314 37.1349 86.7314 36.1293C86.7314 35.1151 86.9274 34.2287 87.3194 33.4702C87.7115 32.7074 88.2676 32.1151 88.9877 31.6932C89.7122 31.267 90.5708 31.054 91.5637 31.054C92.5566 31.054 93.4132 31.267 94.1333 31.6932C94.8578 32.1151 95.416 32.7074 95.8081 33.4702C96.2001 34.2287 96.3961 35.1151 96.3961 36.1293C96.3961 37.1349 96.2001 38.0192 95.8081 38.782C95.416 39.5405 94.8578 40.1328 94.1333 40.5589C93.4132 40.9808 92.5566 41.1918 91.5637 41.1918ZM91.5765 39.0824C92.0282 39.0824 92.4054 38.9545 92.7079 38.6989C93.0105 38.4389 93.2385 38.0852 93.3919 37.6378C93.5495 37.1903 93.6284 36.6811 93.6284 36.1101C93.6284 35.5391 93.5495 35.0298 93.3919 34.5824C93.2385 34.1349 93.0105 33.7812 92.7079 33.5213C92.4054 33.2614 92.0282 33.1314 91.5765 33.1314C91.1206 33.1314 90.737 33.2614 90.426 33.5213C90.1191 33.7812 89.8869 34.1349 89.7292 34.5824C89.5758 35.0298 89.4991 35.5391 89.4991 36.1101C89.4991 36.6811 89.5758 37.1903 89.7292 37.6378C89.8869 38.0852 90.1191 38.4389 90.426 38.6989C90.737 38.9545 91.1206 39.0824 91.5765 39.0824ZM105.951 41.1598C105.205 41.1598 104.529 40.968 103.924 40.5845C103.324 40.1967 102.846 39.6278 102.493 38.8778C102.143 38.1236 101.968 37.1989 101.968 36.1037C101.968 34.9787 102.15 34.0433 102.512 33.2976C102.874 32.5476 103.355 31.9872 103.956 31.6165C104.561 31.2415 105.224 31.054 105.944 31.054C106.494 31.054 106.952 31.1477 107.319 31.3352C107.689 31.5185 107.988 31.7486 108.213 32.0256C108.444 32.2983 108.618 32.5668 108.738 32.831H108.821V27.9091H111.537V41H108.853V39.4276H108.738C108.61 39.7003 108.429 39.9709 108.194 40.2393C107.964 40.5036 107.664 40.723 107.293 40.8977C106.926 41.0724 106.479 41.1598 105.951 41.1598ZM106.814 38.9929C107.252 38.9929 107.623 38.8736 107.926 38.6349C108.233 38.392 108.467 38.0533 108.629 37.6186C108.795 37.1839 108.878 36.6747 108.878 36.0909C108.878 35.5071 108.797 35 108.635 34.5696C108.473 34.1392 108.239 33.8068 107.932 33.5724C107.625 33.3381 107.252 33.2209 106.814 33.2209C106.366 33.2209 105.989 33.3423 105.682 33.5852C105.375 33.8281 105.143 34.1648 104.985 34.5952C104.828 35.0256 104.749 35.5241 104.749 36.0909C104.749 36.6619 104.828 37.1669 104.985 37.6058C105.147 38.0405 105.38 38.3814 105.682 38.6286C105.989 38.8714 106.366 38.9929 106.814 38.9929ZM118.251 41.1918C117.241 41.1918 116.371 40.9872 115.643 40.5781C114.918 40.1648 114.36 39.581 113.968 38.8267C113.576 38.0682 113.38 37.1712 113.38 36.1357C113.38 35.1257 113.576 34.2393 113.968 33.4766C114.36 32.7138 114.912 32.1193 115.623 31.6932C116.339 31.267 117.179 31.054 118.142 31.054C118.79 31.054 119.393 31.1584 119.951 31.3672C120.513 31.5717 121.003 31.8807 121.421 32.294C121.843 32.7074 122.171 33.2273 122.405 33.8537C122.64 34.4759 122.757 35.2045 122.757 36.0398V36.7876H114.466V35.1001H120.194C120.194 34.7081 120.108 34.3608 119.938 34.0582C119.768 33.7557 119.531 33.5192 119.229 33.3487C118.93 33.174 118.583 33.0866 118.187 33.0866C117.773 33.0866 117.407 33.1825 117.087 33.3743C116.772 33.5618 116.525 33.8153 116.346 34.1349C116.167 34.4503 116.075 34.8018 116.071 35.1896V36.794C116.071 37.2798 116.16 37.6996 116.339 38.0533C116.523 38.407 116.78 38.6797 117.113 38.8714C117.445 39.0632 117.839 39.1591 118.295 39.1591C118.598 39.1591 118.875 39.1165 119.126 39.0312C119.378 38.946 119.593 38.8182 119.772 38.6477C119.951 38.4773 120.087 38.2685 120.181 38.0213L122.699 38.1875C122.572 38.7926 122.309 39.321 121.913 39.7727C121.521 40.2202 121.014 40.5696 120.392 40.821C119.774 41.0682 119.06 41.1918 118.251 41.1918ZM133.136 41.1918C132.13 41.1918 131.265 40.9787 130.541 40.5526C129.821 40.1222 129.267 39.5256 128.879 38.7628C128.495 38 128.304 37.1222 128.304 36.1293C128.304 35.1236 128.498 34.2415 128.885 33.483C129.277 32.7202 129.833 32.1257 130.554 31.6996C131.274 31.2692 132.13 31.054 133.123 31.054C133.98 31.054 134.73 31.2095 135.373 31.5206C136.017 31.8317 136.526 32.2685 136.901 32.831C137.276 33.3935 137.483 34.054 137.521 34.8125H134.951C134.879 34.3224 134.687 33.9283 134.376 33.63C134.069 33.3274 133.667 33.1761 133.168 33.1761C132.746 33.1761 132.377 33.2912 132.062 33.5213C131.751 33.7472 131.508 34.0774 131.333 34.5121C131.159 34.9467 131.071 35.473 131.071 36.0909C131.071 36.7173 131.157 37.25 131.327 37.6889C131.502 38.1278 131.747 38.4624 132.062 38.6925C132.377 38.9226 132.746 39.0376 133.168 39.0376C133.479 39.0376 133.758 38.9737 134.005 38.8459C134.257 38.718 134.463 38.5327 134.625 38.2898C134.792 38.0426 134.9 37.7464 134.951 37.4013H137.521C137.478 38.1513 137.274 38.8118 136.907 39.3828C136.545 39.9496 136.044 40.3928 135.405 40.7124C134.766 41.032 134.01 41.1918 133.136 41.1918ZM143.7 41.1918C142.708 41.1918 141.849 40.9808 141.124 40.5589C140.404 40.1328 139.848 39.5405 139.456 38.782C139.064 38.0192 138.868 37.1349 138.868 36.1293C138.868 35.1151 139.064 34.2287 139.456 33.4702C139.848 32.7074 140.404 32.1151 141.124 31.6932C141.849 31.267 142.708 31.054 143.7 31.054C144.693 31.054 145.55 31.267 146.27 31.6932C146.994 32.1151 147.553 32.7074 147.945 33.4702C148.337 34.2287 148.533 35.1151 148.533 36.1293C148.533 37.1349 148.337 38.0192 147.945 38.782C147.553 39.5405 146.994 40.1328 146.27 40.5589C145.55 40.9808 144.693 41.1918 143.7 41.1918ZM143.713 39.0824C144.165 39.0824 144.542 38.9545 144.845 38.6989C145.147 38.4389 145.375 38.0852 145.529 37.6378C145.686 37.1903 145.765 36.6811 145.765 36.1101C145.765 35.5391 145.686 35.0298 145.529 34.5824C145.375 34.1349 145.147 33.7812 144.845 33.5213C144.542 33.2614 144.165 33.1314 143.713 33.1314C143.257 33.1314 142.874 33.2614 142.563 33.5213C142.256 33.7812 142.024 34.1349 141.866 34.5824C141.713 35.0298 141.636 35.5391 141.636 36.1101C141.636 36.6811 141.713 37.1903 141.866 37.6378C142.024 38.0852 142.256 38.4389 142.563 38.6989C142.874 38.9545 143.257 39.0824 143.713 39.0824ZM150.303 41V31.1818H152.899V32.9141H153.014C153.218 32.3388 153.559 31.8849 154.036 31.5526C154.514 31.2202 155.085 31.054 155.749 31.054C156.423 31.054 156.996 31.2223 157.469 31.5589C157.942 31.8913 158.257 32.343 158.415 32.9141H158.517C158.718 32.3516 159.08 31.902 159.604 31.5653C160.132 31.2244 160.757 31.054 161.477 31.054C162.393 31.054 163.137 31.3459 163.708 31.9297C164.283 32.5092 164.57 33.3317 164.57 34.397V41H161.854V34.9339C161.854 34.3885 161.709 33.9794 161.419 33.7067C161.129 33.4339 160.767 33.2976 160.333 33.2976C159.838 33.2976 159.453 33.4553 159.176 33.7706C158.899 34.0817 158.76 34.4929 158.76 35.0043V41H156.12V34.8764C156.12 34.3949 155.982 34.0114 155.705 33.7259C155.432 33.4403 155.072 33.2976 154.624 33.2976C154.322 33.2976 154.049 33.3743 153.806 33.5277C153.568 33.6768 153.378 33.8878 153.237 34.1605C153.097 34.429 153.026 34.7443 153.026 35.1065V41H150.303ZM166.721 44.6818V31.1818H169.406V32.831H169.528C169.647 32.5668 169.819 32.2983 170.045 32.0256C170.275 31.7486 170.574 31.5185 170.94 31.3352C171.311 31.1477 171.771 31.054 172.321 31.054C173.037 31.054 173.697 31.2415 174.302 31.6165C174.907 31.9872 175.391 32.5476 175.753 33.2976C176.116 34.0433 176.297 34.9787 176.297 36.1037C176.297 37.1989 176.12 38.1236 175.766 38.8778C175.417 39.6278 174.939 40.1967 174.334 40.5845C173.733 40.968 173.06 41.1598 172.314 41.1598C171.786 41.1598 171.336 41.0724 170.966 40.8977C170.599 40.723 170.299 40.5036 170.064 40.2393C169.83 39.9709 169.651 39.7003 169.528 39.4276H169.444V44.6818H166.721ZM169.387 36.0909C169.387 36.6747 169.468 37.1839 169.63 37.6186C169.792 38.0533 170.026 38.392 170.333 38.6349C170.64 38.8736 171.013 38.9929 171.452 38.9929C171.895 38.9929 172.27 38.8714 172.577 38.6286C172.883 38.3814 173.116 38.0405 173.273 37.6058C173.435 37.1669 173.516 36.6619 173.516 36.0909C173.516 35.5241 173.437 35.0256 173.28 34.5952C173.122 34.1648 172.89 33.8281 172.583 33.5852C172.276 33.3423 171.899 33.2209 171.452 33.2209C171.008 33.2209 170.633 33.3381 170.327 33.5724C170.024 33.8068 169.792 34.1392 169.63 34.5696C169.468 35 169.387 35.5071 169.387 36.0909ZM178.112 41V31.1818H180.752V32.8949H180.854C181.033 32.2855 181.334 31.8253 181.756 31.5142C182.177 31.1989 182.663 31.0412 183.213 31.0412C183.349 31.0412 183.496 31.0497 183.654 31.0668C183.812 31.0838 183.95 31.1072 184.069 31.1371V33.5533C183.942 33.5149 183.765 33.4808 183.539 33.451C183.313 33.4212 183.106 33.4062 182.919 33.4062C182.518 33.4062 182.16 33.4936 181.845 33.6683C181.534 33.8388 181.287 34.0774 181.104 34.3842C180.925 34.6911 180.835 35.0447 180.835 35.4453V41H178.112ZM187.996 41.1854C187.369 41.1854 186.811 41.0767 186.321 40.8594C185.831 40.6378 185.443 40.3118 185.158 39.8814C184.876 39.4467 184.736 38.9055 184.736 38.2578C184.736 37.7124 184.836 37.2543 185.036 36.8835C185.237 36.5128 185.509 36.2145 185.854 35.9886C186.2 35.7628 186.592 35.5923 187.031 35.4773C187.474 35.3622 187.938 35.2812 188.424 35.2344C188.995 35.1747 189.455 35.1193 189.805 35.0682C190.154 35.0128 190.408 34.9318 190.565 34.8253C190.723 34.7187 190.802 34.5611 190.802 34.3523V34.3139C190.802 33.9091 190.674 33.5959 190.418 33.3743C190.167 33.1527 189.809 33.0419 189.344 33.0419C188.854 33.0419 188.464 33.1506 188.175 33.3679C187.885 33.581 187.693 33.8494 187.599 34.1733L185.081 33.9688C185.209 33.3722 185.46 32.8565 185.835 32.4219C186.21 31.983 186.694 31.6463 187.286 31.4119C187.883 31.1733 188.573 31.054 189.357 31.054C189.903 31.054 190.425 31.1179 190.923 31.2457C191.426 31.3736 191.871 31.5717 192.259 31.8402C192.651 32.1087 192.96 32.4538 193.186 32.8757C193.412 33.2933 193.525 33.794 193.525 34.3778V41H190.942V39.6385H190.866C190.708 39.9453 190.497 40.2159 190.233 40.4503C189.969 40.6804 189.651 40.8615 189.281 40.9936C188.91 41.1214 188.482 41.1854 187.996 41.1854ZM188.776 39.3061C189.176 39.3061 189.53 39.2273 189.837 39.0696C190.143 38.9077 190.384 38.6903 190.559 38.4176C190.734 38.1449 190.821 37.8359 190.821 37.4908V36.4489C190.736 36.5043 190.619 36.5554 190.469 36.6023C190.325 36.6449 190.161 36.6854 189.977 36.7237C189.794 36.7578 189.611 36.7898 189.428 36.8196C189.244 36.8452 189.078 36.8686 188.929 36.8899C188.609 36.9368 188.33 37.0114 188.092 37.1136C187.853 37.2159 187.668 37.3544 187.536 37.5291C187.403 37.6996 187.337 37.9126 187.337 38.1683C187.337 38.5391 187.472 38.8224 187.74 39.0185C188.013 39.2102 188.358 39.3061 188.776 39.3061ZM203.806 33.9815L201.314 34.1349C201.271 33.9219 201.179 33.7301 201.039 33.5597C200.898 33.3849 200.713 33.2464 200.483 33.1442C200.257 33.0376 199.986 32.9844 199.671 32.9844C199.249 32.9844 198.893 33.0739 198.603 33.2528C198.314 33.4276 198.169 33.6619 198.169 33.956C198.169 34.1903 198.262 34.3885 198.45 34.5504C198.637 34.7124 198.959 34.8423 199.415 34.9403L201.192 35.2983C202.147 35.4943 202.858 35.8097 203.327 36.2443C203.796 36.679 204.03 37.25 204.03 37.9574C204.03 38.6009 203.841 39.1655 203.461 39.6513C203.086 40.1371 202.571 40.5163 201.914 40.7891C201.262 41.0575 200.51 41.1918 199.658 41.1918C198.358 41.1918 197.323 40.9212 196.551 40.38C195.784 39.8345 195.335 39.093 195.203 38.1555L197.881 38.0149C197.962 38.4112 198.158 38.7138 198.469 38.9226C198.78 39.1271 199.179 39.2294 199.664 39.2294C200.142 39.2294 200.525 39.1378 200.815 38.9545C201.109 38.767 201.258 38.5263 201.262 38.2322C201.258 37.9851 201.154 37.7827 200.949 37.625C200.745 37.4631 200.429 37.3395 200.003 37.2543L198.303 36.9155C197.344 36.7237 196.63 36.3913 196.162 35.9183C195.697 35.4453 195.465 34.8423 195.465 34.1094C195.465 33.4787 195.635 32.9354 195.976 32.4794C196.321 32.0234 196.805 31.6719 197.427 31.4247C198.054 31.1776 198.787 31.054 199.626 31.054C200.866 31.054 201.842 31.3161 202.554 31.8402C203.27 32.3643 203.687 33.0781 203.806 33.9815Z" fill="white"/>
</svg>
