<svg width="365" height="158" viewBox="0 0 365 158" fill="none" xmlns="http://www.w3.org/2000/svg">
<path d="M0 0H365V153C365 155.761 362.761 158 360 158H5C2.23858 158 0 155.761 0 153V0Z" fill="#F5F5F5"/>
<path d="M96.6964 66.3408C96.6452 65.8251 96.4258 65.4246 96.038 65.139C95.6502 64.8535 95.1239 64.7108 94.4592 64.7108C94.0075 64.7108 93.6261 64.7747 93.315 64.9025C93.0039 65.0261 92.7653 65.1987 92.5991 65.4203C92.4371 65.6419 92.3562 65.8933 92.3562 66.1746C92.3477 66.4089 92.3967 66.6135 92.5032 66.7882C92.614 66.9629 92.7653 67.1142 92.957 67.242C93.1488 67.3656 93.3704 67.4743 93.6218 67.568C93.8732 67.6575 94.1417 67.7342 94.4272 67.7981L95.6033 68.0794C96.1744 68.2072 96.6985 68.3777 97.1758 68.5908C97.6531 68.8038 98.0664 69.0659 98.4158 69.377C98.7653 69.6881 99.0359 70.0545 99.2276 70.4764C99.4237 70.8983 99.5238 71.3819 99.5281 71.9274C99.5238 72.7285 99.3192 73.4231 98.9144 74.0112C98.5138 74.595 97.9343 75.0489 97.1758 75.3727C96.4215 75.6923 95.5117 75.8521 94.4464 75.8521C93.3896 75.8521 92.4691 75.6902 91.685 75.3663C90.9052 75.0425 90.2958 74.5631 89.8569 73.9281C89.4222 73.2889 89.1942 72.4984 89.1729 71.5567H91.8512C91.881 71.9956 92.0067 72.3621 92.2283 72.6561C92.4542 72.9459 92.7546 73.1653 93.1296 73.3145C93.5089 73.4594 93.9371 73.5318 94.4144 73.5318C94.8832 73.5318 95.2901 73.4636 95.6353 73.3273C95.9847 73.1909 96.2553 73.0013 96.4471 72.7584C96.6388 72.5155 96.7347 72.2364 96.7347 71.921C96.7347 71.627 96.6474 71.3798 96.4727 71.1795C96.3022 70.9792 96.0508 70.8088 95.7184 70.6682C95.3903 70.5275 94.9876 70.3997 94.5103 70.2846L93.0849 69.9267C91.9812 69.6582 91.1097 69.2385 90.4705 68.6675C89.8313 68.0964 89.5138 67.3273 89.5181 66.3599C89.5138 65.5673 89.7248 64.8748 90.1509 64.2825C90.5813 63.6902 91.1715 63.2278 91.9215 62.8954C92.6715 62.5631 93.5238 62.3969 94.4783 62.3969C95.4499 62.3969 96.2979 62.5631 97.0224 62.8954C97.7511 63.2278 98.3178 63.6902 98.7227 64.2825C99.1275 64.8748 99.3363 65.5609 99.3491 66.3408H96.6964ZM107.635 71.4864V65.8486H110.358V75.6667H107.743V73.8834H107.641C107.42 74.4587 107.051 74.921 106.535 75.2704C106.024 75.6199 105.4 75.7946 104.662 75.7946C104.006 75.7946 103.429 75.6454 102.93 75.3471C102.432 75.0489 102.042 74.6248 101.76 74.0751C101.483 73.5254 101.343 72.867 101.339 72.1V65.8486H104.062V71.6142C104.066 72.1937 104.221 72.6518 104.528 72.9885C104.835 73.3251 105.246 73.4935 105.762 73.4935C106.09 73.4935 106.397 73.4189 106.682 73.2697C106.968 73.1163 107.198 72.8905 107.373 72.5922C107.552 72.2939 107.639 71.9253 107.635 71.4864ZM115.336 75.8521C114.709 75.8521 114.151 75.7435 113.661 75.5261C113.171 75.3045 112.783 74.9785 112.498 74.5481C112.216 74.1135 112.076 73.5723 112.076 72.9246C112.076 72.3791 112.176 71.921 112.376 71.5503C112.576 71.1795 112.849 70.8812 113.194 70.6554C113.539 70.4295 113.931 70.2591 114.37 70.144C114.814 70.029 115.278 69.948 115.764 69.9011C116.335 69.8415 116.795 69.7861 117.145 69.7349C117.494 69.6795 117.748 69.5986 117.905 69.492C118.063 69.3855 118.142 69.2278 118.142 69.019V68.9807C118.142 68.5758 118.014 68.2626 117.758 68.041C117.507 67.8194 117.149 67.7087 116.684 67.7087C116.194 67.7087 115.804 67.8173 115.515 68.0346C115.225 68.2477 115.033 68.5162 114.939 68.84L112.421 68.6355C112.549 68.0389 112.8 67.5233 113.175 67.0886C113.55 66.6497 114.034 66.3131 114.626 66.0787C115.223 65.84 115.913 65.7207 116.697 65.7207C117.243 65.7207 117.765 65.7846 118.263 65.9125C118.766 66.0403 119.211 66.2385 119.599 66.5069C119.991 66.7754 120.3 67.1206 120.526 67.5425C120.752 67.9601 120.865 68.4608 120.865 69.0446V75.6667H118.282V74.3052H118.206C118.048 74.6121 117.837 74.8827 117.573 75.117C117.309 75.3471 116.991 75.5283 116.62 75.6604C116.25 75.7882 115.821 75.8521 115.336 75.8521ZM116.115 73.9729C116.516 73.9729 116.87 73.894 117.176 73.7364C117.483 73.5744 117.724 73.3571 117.899 73.0844C118.074 72.8116 118.161 72.5027 118.161 72.1575V71.1156C118.076 71.171 117.958 71.2221 117.809 71.269C117.664 71.3116 117.5 71.3521 117.317 71.3905C117.134 71.4246 116.951 71.4565 116.767 71.4864C116.584 71.5119 116.418 71.5354 116.269 71.5567C115.949 71.6035 115.67 71.6781 115.431 71.7804C115.193 71.8827 115.007 72.0212 114.875 72.1959C114.743 72.3663 114.677 72.5794 114.677 72.8351C114.677 73.2058 114.811 73.4892 115.08 73.6852C115.353 73.877 115.698 73.9729 116.115 73.9729ZM135.312 68.6483L132.819 68.8017C132.777 68.5886 132.685 68.3969 132.545 68.2264C132.404 68.0517 132.219 67.9132 131.988 67.8109C131.763 67.7044 131.492 67.6511 131.177 67.6511C130.755 67.6511 130.399 67.7406 130.109 67.9196C129.819 68.0943 129.675 68.3287 129.675 68.6227C129.675 68.8571 129.768 69.0552 129.956 69.2172C130.143 69.3791 130.465 69.5091 130.921 69.6071L132.698 69.965C133.653 70.1611 134.364 70.4764 134.833 70.9111C135.302 71.3457 135.536 71.9167 135.536 72.6241C135.536 73.2676 135.346 73.8322 134.967 74.318C134.592 74.8038 134.077 75.1831 133.42 75.4558C132.768 75.7243 132.016 75.8585 131.164 75.8585C129.864 75.8585 128.829 75.5879 128.057 75.0467C127.29 74.5013 126.841 73.7598 126.709 72.8223L129.387 72.6817C129.468 73.078 129.664 73.3805 129.975 73.5893C130.286 73.7939 130.684 73.8962 131.17 73.8962C131.648 73.8962 132.031 73.8045 132.321 73.6213C132.615 73.4338 132.764 73.193 132.768 72.899C132.764 72.6518 132.66 72.4494 132.455 72.2917C132.251 72.1298 131.935 72.0062 131.509 71.921L129.809 71.5822C128.85 71.3905 128.136 71.0581 127.667 70.5851C127.203 70.1121 126.971 69.5091 126.971 68.7761C126.971 68.1454 127.141 67.6021 127.482 67.1462C127.827 66.6902 128.311 66.3386 128.933 66.0915C129.559 65.8443 130.292 65.7207 131.132 65.7207C132.372 65.7207 133.348 65.9828 134.059 66.5069C134.775 67.0311 135.193 67.7449 135.312 68.6483ZM140.05 75.8521C139.424 75.8521 138.866 75.7435 138.376 75.5261C137.886 75.3045 137.498 74.9785 137.212 74.5481C136.931 74.1135 136.79 73.5723 136.79 72.9246C136.79 72.3791 136.891 71.921 137.091 71.5503C137.291 71.1795 137.564 70.8812 137.909 70.6554C138.254 70.4295 138.646 70.2591 139.085 70.144C139.528 70.029 139.993 69.948 140.479 69.9011C141.05 69.8415 141.51 69.7861 141.859 69.7349C142.209 69.6795 142.462 69.5986 142.62 69.492C142.778 69.3855 142.857 69.2278 142.857 69.019V68.9807C142.857 68.5758 142.729 68.2626 142.473 68.041C142.222 67.8194 141.864 67.7087 141.399 67.7087C140.909 67.7087 140.519 67.8173 140.229 68.0346C139.94 68.2477 139.748 68.5162 139.654 68.84L137.136 68.6355C137.263 68.0389 137.515 67.5233 137.89 67.0886C138.265 66.6497 138.749 66.3131 139.341 66.0787C139.938 65.84 140.628 65.7207 141.412 65.7207C141.957 65.7207 142.479 65.7846 142.978 65.9125C143.481 66.0403 143.926 66.2385 144.314 66.5069C144.706 66.7754 145.015 67.1206 145.241 67.5425C145.467 67.9601 145.58 68.4608 145.58 69.0446V75.6667H142.997V74.3052H142.92C142.763 74.6121 142.552 74.8827 142.288 75.117C142.023 75.3471 141.706 75.5283 141.335 75.6604C140.964 75.7882 140.536 75.8521 140.05 75.8521ZM140.83 73.9729C141.231 73.9729 141.585 73.894 141.891 73.7364C142.198 73.5744 142.439 73.3571 142.614 73.0844C142.788 72.8116 142.876 72.5027 142.876 72.1575V71.1156C142.79 71.171 142.673 71.2221 142.524 71.269C142.379 71.3116 142.215 71.3521 142.032 71.3905C141.849 71.4246 141.665 71.4565 141.482 71.4864C141.299 71.5119 141.133 71.5354 140.984 71.5567C140.664 71.6035 140.385 71.6781 140.146 71.7804C139.908 71.8827 139.722 72.0212 139.59 72.1959C139.458 72.3663 139.392 72.5794 139.392 72.8351C139.392 73.2058 139.526 73.4892 139.795 73.6852C140.067 73.877 140.413 73.9729 140.83 73.9729ZM152.128 75.8585C151.123 75.8585 150.257 75.6454 149.533 75.2193C148.813 74.7889 148.259 74.1923 147.871 73.4295C147.488 72.6667 147.296 71.7889 147.296 70.796C147.296 69.7903 147.49 68.9082 147.877 68.1497C148.27 67.3869 148.826 66.7925 149.546 66.3663C150.266 65.9359 151.123 65.7207 152.115 65.7207C152.972 65.7207 153.722 65.8763 154.365 66.1873C155.009 66.4984 155.518 66.9352 155.893 67.4977C156.268 68.0602 156.475 68.7207 156.513 69.4792H153.944C153.871 68.9892 153.679 68.595 153.368 68.2967C153.061 67.9942 152.659 67.8429 152.16 67.8429C151.738 67.8429 151.37 67.9579 151.054 68.1881C150.743 68.4139 150.5 68.7442 150.326 69.1788C150.151 69.6135 150.064 70.1398 150.064 70.7577C150.064 71.3841 150.149 71.9167 150.319 72.3557C150.494 72.7946 150.739 73.1291 151.054 73.3592C151.37 73.5893 151.738 73.7044 152.16 73.7044C152.471 73.7044 152.75 73.6405 152.998 73.5126C153.249 73.3848 153.456 73.1994 153.618 72.9565C153.784 72.7094 153.892 72.4132 153.944 72.068H156.513C156.471 72.818 156.266 73.4785 155.9 74.0496C155.537 74.6163 155.037 75.0595 154.397 75.3791C153.758 75.6987 153.002 75.8585 152.128 75.8585ZM162.693 75.8585C161.7 75.8585 160.841 75.6476 160.117 75.2257C159.396 74.7996 158.84 74.2072 158.448 73.4487C158.056 72.6859 157.86 71.8017 157.86 70.796C157.86 69.7818 158.056 68.8954 158.448 68.1369C158.84 67.3741 159.396 66.7818 160.117 66.3599C160.841 65.9338 161.7 65.7207 162.693 65.7207C163.686 65.7207 164.542 65.9338 165.262 66.3599C165.987 66.7818 166.545 67.3741 166.937 68.1369C167.329 68.8954 167.525 69.7818 167.525 70.796C167.525 71.8017 167.329 72.6859 166.937 73.4487C166.545 74.2072 165.987 74.7996 165.262 75.2257C164.542 75.6476 163.686 75.8585 162.693 75.8585ZM162.705 73.7491C163.157 73.7491 163.534 73.6213 163.837 73.3656C164.139 73.1057 164.367 72.752 164.521 72.3045C164.678 71.8571 164.757 71.3479 164.757 70.7768C164.757 70.2058 164.678 69.6966 164.521 69.2491C164.367 68.8017 164.139 68.448 163.837 68.1881C163.534 67.9281 163.157 67.7981 162.705 67.7981C162.249 67.7981 161.866 67.9281 161.555 68.1881C161.248 68.448 161.016 68.8017 160.858 69.2491C160.705 69.6966 160.628 70.2058 160.628 70.7768C160.628 71.3479 160.705 71.8571 160.858 72.3045C161.016 72.752 161.248 73.1057 161.555 73.3656C161.866 73.6213 162.249 73.7491 162.705 73.7491ZM172.019 62.5758V75.6667H169.296V62.5758H172.019ZM177 75.8521C176.373 75.8521 175.815 75.7435 175.325 75.5261C174.835 75.3045 174.447 74.9785 174.162 74.5481C173.88 74.1135 173.74 73.5723 173.74 72.9246C173.74 72.3791 173.84 71.921 174.04 71.5503C174.24 71.1795 174.513 70.8812 174.858 70.6554C175.203 70.4295 175.596 70.2591 176.034 70.144C176.478 70.029 176.942 69.948 177.428 69.9011C177.999 69.8415 178.459 69.7861 178.809 69.7349C179.158 69.6795 179.412 69.5986 179.569 69.492C179.727 69.3855 179.806 69.2278 179.806 69.019V68.9807C179.806 68.5758 179.678 68.2626 179.422 68.041C179.171 67.8194 178.813 67.7087 178.348 67.7087C177.858 67.7087 177.468 67.8173 177.179 68.0346C176.889 68.2477 176.697 68.5162 176.603 68.84L174.085 68.6355C174.213 68.0389 174.464 67.5233 174.839 67.0886C175.214 66.6497 175.698 66.3131 176.29 66.0787C176.887 65.84 177.577 65.7207 178.361 65.7207C178.907 65.7207 179.429 65.7846 179.927 65.9125C180.43 66.0403 180.875 66.2385 181.263 66.5069C181.655 66.7754 181.964 67.1206 182.19 67.5425C182.416 67.9601 182.529 68.4608 182.529 69.0446V75.6667H179.946V74.3052H179.87C179.712 74.6121 179.501 74.8827 179.237 75.117C178.973 75.3471 178.655 75.5283 178.284 75.6604C177.914 75.7882 177.485 75.8521 177 75.8521ZM177.779 73.9729C178.18 73.9729 178.534 73.894 178.841 73.7364C179.147 73.5744 179.388 73.3571 179.563 73.0844C179.738 72.8116 179.825 72.5027 179.825 72.1575V71.1156C179.74 71.171 179.623 71.2221 179.473 71.269C179.328 71.3116 179.164 71.3521 178.981 71.3905C178.798 71.4246 178.615 71.4565 178.431 71.4864C178.248 71.5119 178.082 71.5354 177.933 71.5567C177.613 71.6035 177.334 71.6781 177.096 71.7804C176.857 71.8827 176.672 72.0212 176.539 72.1959C176.407 72.3663 176.341 72.5794 176.341 72.8351C176.341 73.2058 176.475 73.4892 176.744 73.6852C177.017 73.877 177.362 73.9729 177.779 73.9729ZM193.282 75.8585C192.272 75.8585 191.403 75.654 190.674 75.2449C189.949 74.8315 189.391 74.2477 188.999 73.4935C188.607 72.7349 188.411 71.8379 188.411 70.8024C188.411 69.7925 188.607 68.9061 188.999 68.1433C189.391 67.3805 189.943 66.7861 190.655 66.3599C191.371 65.9338 192.21 65.7207 193.173 65.7207C193.821 65.7207 194.424 65.8251 194.982 66.0339C195.545 66.2385 196.035 66.5474 196.452 66.9608C196.874 67.3741 197.202 67.894 197.437 68.5204C197.671 69.1426 197.788 69.8713 197.788 70.7065V71.4544H189.498V69.7669H195.225C195.225 69.3748 195.14 69.0275 194.969 68.725C194.799 68.4224 194.562 68.1859 194.26 68.0155C193.961 67.8408 193.614 67.7534 193.218 67.7534C192.805 67.7534 192.438 67.8493 192.118 68.041C191.803 68.2285 191.556 68.4821 191.377 68.8017C191.198 69.117 191.106 69.4686 191.102 69.8564V71.4608C191.102 71.9466 191.192 72.3663 191.371 72.72C191.554 73.0737 191.812 73.3464 192.144 73.5382C192.476 73.73 192.871 73.8258 193.327 73.8258C193.629 73.8258 193.906 73.7832 194.157 73.698C194.409 73.6128 194.624 73.4849 194.803 73.3145C194.982 73.144 195.118 72.9352 195.212 72.6881L197.731 72.8542C197.603 73.4594 197.341 73.9878 196.944 74.4395C196.552 74.8869 196.045 75.2364 195.423 75.4878C194.805 75.7349 194.091 75.8585 193.282 75.8585ZM207.734 68.6483L205.241 68.8017C205.199 68.5886 205.107 68.3969 204.966 68.2264C204.826 68.0517 204.64 67.9132 204.41 67.8109C204.184 67.7044 203.914 67.6511 203.599 67.6511C203.177 67.6511 202.821 67.7406 202.531 67.9196C202.241 68.0943 202.096 68.3287 202.096 68.6227C202.096 68.8571 202.19 69.0552 202.378 69.2172C202.565 69.3791 202.887 69.5091 203.343 69.6071L205.12 69.965C206.074 70.1611 206.786 70.4764 207.255 70.9111C207.724 71.3457 207.958 71.9167 207.958 72.6241C207.958 73.2676 207.768 73.8322 207.389 74.318C207.014 74.8038 206.498 75.1831 205.842 75.4558C205.19 75.7243 204.438 75.8585 203.586 75.8585C202.286 75.8585 201.251 75.5879 200.479 75.0467C199.712 74.5013 199.263 73.7598 199.131 72.8223L201.809 72.6817C201.89 73.078 202.086 73.3805 202.397 73.5893C202.708 73.7939 203.106 73.8962 203.592 73.8962C204.069 73.8962 204.453 73.8045 204.743 73.6213C205.037 73.4338 205.186 73.193 205.19 72.899C205.186 72.6518 205.081 72.4494 204.877 72.2917C204.672 72.1298 204.357 72.0062 203.931 71.921L202.231 71.5822C201.272 71.3905 200.558 71.0581 200.089 70.5851C199.625 70.1121 199.393 69.5091 199.393 68.7761C199.393 68.1454 199.563 67.6021 199.904 67.1462C200.249 66.6902 200.733 66.3386 201.355 66.0915C201.981 65.8443 202.714 65.7207 203.554 65.7207C204.794 65.7207 205.77 65.9828 206.481 66.5069C207.197 67.0311 207.615 67.7449 207.734 68.6483ZM214.895 65.8486V67.894H208.982V65.8486H214.895ZM210.325 63.4963H213.048V72.6497C213.048 72.9011 213.086 73.0971 213.163 73.2378C213.239 73.3741 213.346 73.47 213.482 73.5254C213.623 73.5808 213.785 73.6085 213.968 73.6085C214.096 73.6085 214.224 73.5979 214.352 73.5765C214.479 73.551 214.577 73.5318 214.646 73.519L215.074 75.5453C214.938 75.5879 214.746 75.6369 214.499 75.6923C214.251 75.752 213.951 75.7882 213.597 75.801C212.941 75.8265 212.366 75.7392 211.871 75.5389C211.381 75.3386 211 75.0275 210.727 74.6057C210.455 74.1838 210.32 73.6511 210.325 73.0077V63.4963ZM219.468 75.8521C218.842 75.8521 218.284 75.7435 217.794 75.5261C217.304 75.3045 216.916 74.9785 216.63 74.5481C216.349 74.1135 216.208 73.5723 216.208 72.9246C216.208 72.3791 216.309 71.921 216.509 71.5503C216.709 71.1795 216.982 70.8812 217.327 70.6554C217.672 70.4295 218.064 70.2591 218.503 70.144C218.946 70.029 219.411 69.948 219.897 69.9011C220.468 69.8415 220.928 69.7861 221.277 69.7349C221.627 69.6795 221.88 69.5986 222.038 69.492C222.196 69.3855 222.275 69.2278 222.275 69.019V68.9807C222.275 68.5758 222.147 68.2626 221.891 68.041C221.64 67.8194 221.282 67.7087 220.817 67.7087C220.327 67.7087 219.937 67.8173 219.647 68.0346C219.358 68.2477 219.166 68.5162 219.072 68.84L216.554 68.6355C216.681 68.0389 216.933 67.5233 217.308 67.0886C217.683 66.6497 218.167 66.3131 218.759 66.0787C219.355 65.84 220.046 65.7207 220.83 65.7207C221.375 65.7207 221.897 65.7846 222.396 65.9125C222.899 66.0403 223.344 66.2385 223.732 66.5069C224.124 66.7754 224.433 67.1206 224.659 67.5425C224.885 67.9601 224.998 68.4608 224.998 69.0446V75.6667H222.415V74.3052H222.338C222.181 74.6121 221.97 74.8827 221.706 75.117C221.441 75.3471 221.124 75.5283 220.753 75.6604C220.382 75.7882 219.954 75.8521 219.468 75.8521ZM220.248 73.9729C220.649 73.9729 221.002 73.894 221.309 73.7364C221.616 73.5744 221.857 73.3571 222.032 73.0844C222.206 72.8116 222.294 72.5027 222.294 72.1575V71.1156C222.208 71.171 222.091 71.2221 221.942 71.269C221.797 71.3116 221.633 71.3521 221.45 71.3905C221.267 71.4246 221.083 71.4565 220.9 71.4864C220.717 71.5119 220.551 71.5354 220.402 71.5567C220.082 71.6035 219.803 71.6781 219.564 71.7804C219.326 71.8827 219.14 72.0212 219.008 72.1959C218.876 72.3663 218.81 72.5794 218.81 72.8351C218.81 73.2058 218.944 73.4892 219.213 73.6852C219.485 73.877 219.831 73.9729 220.248 73.9729ZM219.954 64.5829L221.309 61.6746H223.828L221.878 64.5829H219.954ZM240.43 65.8486L236.997 75.6667H233.929L230.496 65.8486H233.373L235.412 72.8734H235.514L237.547 65.8486H240.43ZM244.359 75.8521C243.733 75.8521 243.174 75.7435 242.684 75.5261C242.194 75.3045 241.806 74.9785 241.521 74.5481C241.24 74.1135 241.099 73.5723 241.099 72.9246C241.099 72.3791 241.199 71.921 241.4 71.5503C241.6 71.1795 241.873 70.8812 242.218 70.6554C242.563 70.4295 242.955 70.2591 243.394 70.144C243.837 70.029 244.301 69.948 244.787 69.9011C245.358 69.8415 245.819 69.7861 246.168 69.7349C246.517 69.6795 246.771 69.5986 246.929 69.492C247.086 69.3855 247.165 69.2278 247.165 69.019V68.9807C247.165 68.5758 247.037 68.2626 246.782 68.041C246.53 67.8194 246.172 67.7087 245.708 67.7087C245.218 67.7087 244.828 67.8173 244.538 68.0346C244.248 68.2477 244.056 68.5162 243.963 68.84L241.444 68.6355C241.572 68.0389 241.824 67.5233 242.199 67.0886C242.574 66.6497 243.057 66.3131 243.65 66.0787C244.246 65.84 244.936 65.7207 245.721 65.7207C246.266 65.7207 246.788 65.7846 247.287 65.9125C247.789 66.0403 248.235 66.2385 248.623 66.5069C249.015 66.7754 249.324 67.1206 249.549 67.5425C249.775 67.9601 249.888 68.4608 249.888 69.0446V75.6667H247.306V74.3052H247.229C247.071 74.6121 246.86 74.8827 246.596 75.117C246.332 75.3471 246.015 75.5283 245.644 75.6604C245.273 75.7882 244.845 75.8521 244.359 75.8521ZM245.139 73.9729C245.539 73.9729 245.893 73.894 246.2 73.7364C246.507 73.5744 246.748 73.3571 246.922 73.0844C247.097 72.8116 247.184 72.5027 247.184 72.1575V71.1156C247.099 71.171 246.982 71.2221 246.833 71.269C246.688 71.3116 246.524 71.3521 246.341 71.3905C246.157 71.4246 245.974 71.4565 245.791 71.4864C245.608 71.5119 245.441 71.5354 245.292 71.5567C244.973 71.6035 244.694 71.6781 244.455 71.7804C244.216 71.8827 244.031 72.0212 243.899 72.1959C243.767 72.3663 243.701 72.5794 243.701 72.8351C243.701 73.2058 243.835 73.4892 244.103 73.6852C244.376 73.877 244.721 73.9729 245.139 73.9729ZM251.95 75.6667V74.0432L256.756 68.0922V68.0219H252.116V65.8486H260.036V67.6192L255.523 73.4231V73.4935H260.202V75.6667H251.95ZM262.284 75.6667V65.8486H265.007V75.6667H262.284ZM263.652 64.5829C263.247 64.5829 262.9 64.4487 262.61 64.1802C262.324 63.9075 262.182 63.5815 262.182 63.2023C262.182 62.8273 262.324 62.5055 262.61 62.2371C262.9 61.9643 263.247 61.828 263.652 61.828C264.057 61.828 264.402 61.9643 264.687 62.2371C264.977 62.5055 265.122 62.8273 265.122 63.2023C265.122 63.5815 264.977 63.9075 264.687 64.1802C264.402 64.4487 264.057 64.5829 263.652 64.5829ZM269.988 75.8521C269.362 75.8521 268.803 75.7435 268.313 75.5261C267.823 75.3045 267.435 74.9785 267.15 74.5481C266.869 74.1135 266.728 73.5723 266.728 72.9246C266.728 72.3791 266.828 71.921 267.028 71.5503C267.229 71.1795 267.501 70.8812 267.847 70.6554C268.192 70.4295 268.584 70.2591 269.023 70.144C269.466 70.029 269.93 69.948 270.416 69.9011C270.987 69.8415 271.447 69.7861 271.797 69.7349C272.146 69.6795 272.4 69.5986 272.558 69.492C272.715 69.3855 272.794 69.2278 272.794 69.019V68.9807C272.794 68.5758 272.666 68.2626 272.411 68.041C272.159 67.8194 271.801 67.7087 271.337 67.7087C270.847 67.7087 270.457 67.8173 270.167 68.0346C269.877 68.2477 269.685 68.5162 269.592 68.84L267.073 68.6355C267.201 68.0389 267.452 67.5233 267.827 67.0886C268.202 66.6497 268.686 66.3131 269.278 66.0787C269.875 65.84 270.565 65.7207 271.349 65.7207C271.895 65.7207 272.417 65.7846 272.915 65.9125C273.418 66.0403 273.864 66.2385 274.251 66.5069C274.643 66.7754 274.952 67.1206 275.178 67.5425C275.404 67.9601 275.517 68.4608 275.517 69.0446V75.6667H272.935V74.3052H272.858C272.7 74.6121 272.489 74.8827 272.225 75.117C271.961 75.3471 271.643 75.5283 271.273 75.6604C270.902 75.7882 270.474 75.8521 269.988 75.8521ZM270.768 73.9729C271.168 73.9729 271.522 73.894 271.829 73.7364C272.136 73.5744 272.376 73.3571 272.551 73.0844C272.726 72.8116 272.813 72.5027 272.813 72.1575V71.1156C272.728 71.171 272.611 71.2221 272.462 71.269C272.317 71.3116 272.153 71.3521 271.969 71.3905C271.786 71.4246 271.603 71.4565 271.42 71.4864C271.237 71.5119 271.07 71.5354 270.921 71.5567C270.602 71.6035 270.322 71.6781 270.084 71.7804C269.845 71.8827 269.66 72.0212 269.528 72.1959C269.396 72.3663 269.33 72.5794 269.33 72.8351C269.33 73.2058 269.464 73.4892 269.732 73.6852C270.005 73.877 270.35 73.9729 270.768 73.9729Z" fill="#333333"/>
<path d="M137.536 107H136.244L139.982 96.8182H141.255L144.994 107H143.701L140.658 98.429H140.579L137.536 107ZM138.014 103.023H143.224V104.116H138.014V103.023ZM149.304 107.159C148.668 107.159 148.106 106.998 147.619 106.677C147.131 106.352 146.75 105.895 146.475 105.305C146.2 104.711 146.063 104.01 146.063 103.202C146.063 102.4 146.2 101.704 146.475 101.114C146.75 100.524 147.133 100.068 147.624 99.7464C148.114 99.425 148.681 99.2642 149.324 99.2642C149.821 99.2642 150.214 99.3471 150.502 99.5128C150.794 99.6752 151.016 99.8608 151.168 100.07C151.324 100.275 151.445 100.444 151.531 100.577H151.631V96.8182H152.804V107H151.671V105.827H151.531C151.445 105.966 151.323 106.142 151.163 106.354C151.004 106.562 150.777 106.75 150.482 106.915C150.187 107.078 149.795 107.159 149.304 107.159ZM149.463 106.105C149.934 106.105 150.332 105.982 150.656 105.737C150.981 105.489 151.228 105.146 151.397 104.708C151.566 104.267 151.651 103.759 151.651 103.182C151.651 102.612 151.568 102.113 151.402 101.685C151.236 101.254 150.991 100.92 150.666 100.681C150.341 100.439 149.94 100.318 149.463 100.318C148.966 100.318 148.552 100.446 148.22 100.701C147.892 100.953 147.645 101.296 147.479 101.73C147.317 102.161 147.236 102.645 147.236 103.182C147.236 103.725 147.319 104.219 147.484 104.663C147.653 105.104 147.902 105.455 148.23 105.717C148.562 105.976 148.973 106.105 149.463 106.105ZM155.116 107V99.3636H156.289V107H155.116ZM155.712 98.0909C155.484 98.0909 155.287 98.013 155.121 97.8572C154.958 97.7015 154.877 97.5142 154.877 97.2955C154.877 97.0767 154.958 96.8894 155.121 96.7337C155.287 96.5779 155.484 96.5 155.712 96.5C155.941 96.5 156.137 96.5779 156.299 96.7337C156.465 96.8894 156.548 97.0767 156.548 97.2955C156.548 97.5142 156.465 97.7015 156.299 97.8572C156.137 98.013 155.941 98.0909 155.712 98.0909ZM161.54 107.159C160.824 107.159 160.208 106.99 159.691 106.652C159.174 106.314 158.776 105.848 158.498 105.255C158.219 104.662 158.08 103.984 158.08 103.222C158.08 102.446 158.223 101.762 158.508 101.168C158.796 100.572 159.197 100.106 159.711 99.7713C160.228 99.4332 160.831 99.2642 161.521 99.2642C162.057 99.2642 162.541 99.3636 162.972 99.5625C163.403 99.7614 163.756 100.04 164.031 100.398C164.306 100.756 164.477 101.173 164.543 101.651H163.37C163.28 101.303 163.082 100.994 162.773 100.726C162.468 100.454 162.057 100.318 161.54 100.318C161.083 100.318 160.682 100.437 160.337 100.676C159.996 100.911 159.729 101.245 159.537 101.675C159.348 102.103 159.253 102.605 159.253 103.182C159.253 103.772 159.346 104.286 159.532 104.723C159.721 105.161 159.986 105.5 160.327 105.742C160.672 105.984 161.076 106.105 161.54 106.105C161.845 106.105 162.122 106.052 162.371 105.946C162.619 105.84 162.83 105.688 163.002 105.489C163.174 105.29 163.297 105.051 163.37 104.773H164.543C164.477 105.223 164.313 105.629 164.051 105.991C163.793 106.349 163.449 106.634 163.022 106.846C162.598 107.055 162.104 107.159 161.54 107.159ZM166.258 107V99.3636H167.432V107H166.258ZM166.855 98.0909C166.626 98.0909 166.429 98.013 166.263 97.8572C166.101 97.7015 166.02 97.5142 166.02 97.2955C166.02 97.0767 166.101 96.8894 166.263 96.7337C166.429 96.5779 166.626 96.5 166.855 96.5C167.084 96.5 167.279 96.5779 167.442 96.7337C167.607 96.8894 167.69 97.0767 167.69 97.2955C167.69 97.5142 167.607 97.7015 167.442 97.8572C167.279 98.013 167.084 98.0909 166.855 98.0909ZM172.683 107.159C171.994 107.159 171.389 106.995 170.868 106.667C170.351 106.339 169.947 105.88 169.655 105.29C169.367 104.7 169.223 104.01 169.223 103.222C169.223 102.426 169.367 101.732 169.655 101.138C169.947 100.545 170.351 100.085 170.868 99.7564C171.389 99.4283 171.994 99.2642 172.683 99.2642C173.372 99.2642 173.976 99.4283 174.493 99.7564C175.013 100.085 175.417 100.545 175.706 101.138C175.997 101.732 176.143 102.426 176.143 103.222C176.143 104.01 175.997 104.7 175.706 105.29C175.417 105.88 175.013 106.339 174.493 106.667C173.976 106.995 173.372 107.159 172.683 107.159ZM172.683 106.105C173.207 106.105 173.638 105.971 173.976 105.702C174.314 105.434 174.564 105.081 174.726 104.643C174.889 104.206 174.97 103.732 174.97 103.222C174.97 102.711 174.889 102.236 174.726 101.795C174.564 101.354 174.314 100.998 173.976 100.726C173.638 100.454 173.207 100.318 172.683 100.318C172.159 100.318 171.728 100.454 171.39 100.726C171.052 100.998 170.802 101.354 170.64 101.795C170.477 102.236 170.396 102.711 170.396 103.222C170.396 103.732 170.477 104.206 170.64 104.643C170.802 105.081 171.052 105.434 171.39 105.702C171.728 105.971 172.159 106.105 172.683 106.105ZM179.108 102.406V107H177.934V99.3636H179.068V100.557H179.167C179.346 100.169 179.618 99.8575 179.983 99.6222C180.347 99.3835 180.818 99.2642 181.394 99.2642C181.911 99.2642 182.364 99.3703 182.752 99.5824C183.139 99.7912 183.441 100.109 183.657 100.537C183.872 100.961 183.98 101.498 183.98 102.148V107H182.806V102.227C182.806 101.627 182.651 101.16 182.339 100.825C182.027 100.487 181.6 100.318 181.056 100.318C180.682 100.318 180.347 100.399 180.052 100.562C179.76 100.724 179.53 100.961 179.361 101.273C179.192 101.584 179.108 101.962 179.108 102.406ZM189.325 107.159C188.59 107.159 187.955 106.997 187.421 106.672C186.891 106.344 186.482 105.886 186.193 105.3C185.908 104.71 185.766 104.024 185.766 103.241C185.766 102.459 185.908 101.77 186.193 101.173C186.482 100.573 186.883 100.106 187.396 99.7713C187.913 99.4332 188.517 99.2642 189.206 99.2642C189.604 99.2642 189.997 99.3305 190.384 99.4631C190.772 99.5956 191.125 99.8111 191.443 100.109C191.761 100.404 192.015 100.795 192.204 101.283C192.393 101.77 192.487 102.37 192.487 103.082V103.58H186.601V102.565H191.294C191.294 102.134 191.208 101.75 191.036 101.412C190.867 101.074 190.625 100.807 190.31 100.612C189.998 100.416 189.63 100.318 189.206 100.318C188.739 100.318 188.334 100.434 187.993 100.666C187.655 100.895 187.395 101.193 187.212 101.561C187.03 101.929 186.939 102.323 186.939 102.744V103.42C186.939 103.997 187.038 104.486 187.237 104.887C187.439 105.285 187.72 105.588 188.078 105.797C188.435 106.002 188.851 106.105 189.325 106.105C189.634 106.105 189.912 106.062 190.161 105.976C190.412 105.886 190.63 105.754 190.812 105.578C190.994 105.399 191.135 105.177 191.234 104.912L192.368 105.23C192.249 105.615 192.048 105.953 191.766 106.244C191.485 106.533 191.137 106.758 190.722 106.92C190.308 107.08 189.842 107.159 189.325 107.159ZM198.21 107V99.3636H199.383V107H198.21ZM198.806 98.0909C198.578 98.0909 198.38 98.013 198.215 97.8572C198.052 97.7015 197.971 97.5142 197.971 97.2955C197.971 97.0767 198.052 96.8894 198.215 96.7337C198.38 96.5779 198.578 96.5 198.806 96.5C199.035 96.5 199.23 96.5779 199.393 96.7337C199.559 96.8894 199.641 97.0767 199.641 97.2955C199.641 97.5142 199.559 97.7015 199.393 97.8572C199.23 98.013 199.035 98.0909 198.806 98.0909ZM204.853 99.3636V100.358H200.896V99.3636H204.853ZM202.049 97.5341H203.222V104.812C203.222 105.144 203.27 105.393 203.366 105.558C203.466 105.721 203.592 105.83 203.744 105.886C203.9 105.939 204.064 105.966 204.236 105.966C204.366 105.966 204.472 105.959 204.555 105.946C204.637 105.929 204.704 105.916 204.753 105.906L204.992 106.96C204.913 106.99 204.802 107.02 204.659 107.05C204.516 107.083 204.336 107.099 204.117 107.099C203.786 107.099 203.461 107.028 203.143 106.886C202.828 106.743 202.566 106.526 202.357 106.234C202.152 105.943 202.049 105.575 202.049 105.131V97.5341ZM209.737 107.159C209.002 107.159 208.367 106.997 207.833 106.672C207.303 106.344 206.894 105.886 206.605 105.3C206.32 104.71 206.178 104.024 206.178 103.241C206.178 102.459 206.32 101.77 206.605 101.173C206.894 100.573 207.295 100.106 207.809 99.7713C208.326 99.4332 208.929 99.2642 209.618 99.2642C210.016 99.2642 210.409 99.3305 210.796 99.4631C211.184 99.5956 211.537 99.8111 211.855 100.109C212.174 100.404 212.427 100.795 212.616 101.283C212.805 101.77 212.899 102.37 212.899 103.082V103.58H207.013V102.565H211.706C211.706 102.134 211.62 101.75 211.448 101.412C211.279 101.074 211.037 100.807 210.722 100.612C210.41 100.416 210.042 100.318 209.618 100.318C209.151 100.318 208.746 100.434 208.405 100.666C208.067 100.895 207.807 101.193 207.625 101.561C207.442 101.929 207.351 102.323 207.351 102.744V103.42C207.351 103.997 207.451 104.486 207.649 104.887C207.852 105.285 208.132 105.588 208.49 105.797C208.848 106.002 209.264 106.105 209.737 106.105C210.046 106.105 210.324 106.062 210.573 105.976C210.825 105.886 211.042 105.754 211.224 105.578C211.406 105.399 211.547 105.177 211.647 104.912L212.78 105.23C212.661 105.615 212.46 105.953 212.179 106.244C211.897 106.533 211.549 106.758 211.134 106.92C210.72 107.08 210.255 107.159 209.737 107.159ZM215.858 102.406V107H214.684V99.3636H215.818V100.557H215.917C216.096 100.169 216.368 99.8575 216.733 99.6222C217.097 99.3835 217.568 99.2642 218.144 99.2642C218.661 99.2642 219.114 99.3703 219.502 99.5824C219.889 99.7912 220.191 100.109 220.407 100.537C220.622 100.961 220.73 101.498 220.73 102.148V107H219.556V102.227C219.556 101.627 219.401 101.16 219.089 100.825C218.777 100.487 218.35 100.318 217.806 100.318C217.432 100.318 217.097 100.399 216.802 100.562C216.51 100.724 216.28 100.961 216.111 101.273C215.942 101.584 215.858 101.962 215.858 102.406ZM228.283 101.074L227.229 101.372C227.162 101.196 227.065 101.026 226.935 100.86C226.81 100.691 226.637 100.552 226.418 100.442C226.2 100.333 225.92 100.278 225.578 100.278C225.111 100.278 224.721 100.386 224.41 100.602C224.102 100.814 223.948 101.084 223.948 101.412C223.948 101.704 224.054 101.934 224.266 102.103C224.478 102.272 224.809 102.413 225.26 102.526L226.394 102.804C227.076 102.97 227.585 103.223 227.92 103.565C228.255 103.903 228.422 104.339 228.422 104.872C228.422 105.31 228.296 105.701 228.044 106.045C227.796 106.39 227.448 106.662 227 106.861C226.553 107.06 226.032 107.159 225.439 107.159C224.66 107.159 224.015 106.99 223.505 106.652C222.995 106.314 222.671 105.82 222.536 105.17L223.649 104.892C223.755 105.303 223.956 105.611 224.251 105.817C224.549 106.022 224.939 106.125 225.419 106.125C225.966 106.125 226.4 106.009 226.722 105.777C227.046 105.542 227.209 105.26 227.209 104.932C227.209 104.667 227.116 104.445 226.93 104.266C226.745 104.083 226.46 103.947 226.075 103.858L224.803 103.56C224.103 103.394 223.59 103.137 223.261 102.789C222.937 102.438 222.774 101.999 222.774 101.472C222.774 101.041 222.895 100.66 223.137 100.328C223.382 99.9967 223.716 99.7365 224.136 99.5476C224.561 99.3587 225.041 99.2642 225.578 99.2642C226.334 99.2642 226.927 99.4299 227.358 99.7614C227.792 100.093 228.1 100.53 228.283 101.074Z" fill="#828282"/>
</svg>
